<svg xmlns="http://www.w3.org/2000/svg" viewBox="0 0 120.39 127.05" class="logo-icon">
  <path class="box" d="M105.5,0H8.32A8.31,8.31,0,0,0,0,8.32V105.5a8.31,8.31,0,0,0,8.32,8.32H105.5a8.31,8.31,0,0,0,8.32-8.32V8.32A8.31,8.31,0,0,0,105.5,0ZM67,59,52.13,67.63a5.6,5.6,0,0,1-8.4-4.85V45.59a5.6,5.6,0,0,1,8.4-4.84L67,49.34a5.67,5.67,0,0,1,2,2A5.59,5.59,0,0,1,67,59Z"/>
  <path class="magnify" d="M29.44,24.12A39.44,39.44,0,0,0,75.3,87.93a10.73,10.73,0,0,0,2.57,8.3l23.6,27.12a10.78,10.78,0,1,0,16.27-14.16h0L94.15,82.07a10.78,10.78,0,0,0-7.87-3.7A39.44,39.44,0,0,0,29.44,24.13Zm9.41,10.82A25.12,25.12,0,1,1,36.64,70.4l-.12-.14a24.91,24.91,0,0,1,2.17-35.18Z" />
</svg>
