<svg xmlns="http://www.w3.org/2000/svg" viewBox="0 0 120.39 127.05"><path d="M105.5,0H8.32A8.31,8.31,0,0,0,0,8.3v97.2a8.31,8.31,0,0,0,8.3,8.32h97.2a8.31,8.31,0,0,0,8.32-8.3V8.32A8.31,8.31,0,0,0,105.52,0ZM67,59,52.13,67.63a5.6,5.6,0,0,1-8.4-4.85V45.59a5.6,5.6,0,0,1,8.4-4.84L67,49.34a5.8,5.8,0,0,1,2,2A5.58,5.58,0,0,1,67,59Z" fill="#fff"/><path d="M29.44,24.12A39.44,39.44,0,0,0,75.3,87.93a10.73,10.73,0,0,0,2.57,8.3l23.6,27.12a10.78,10.78,0,1,0,16.27-14.16h0L94.15,82.07a10.78,10.78,0,0,0-7.87-3.7A39.44,39.44,0,0,0,29.44,24.13Zm9.41,10.82A25.12,25.12,0,1,1,36.64,70.4l-.12-.14A24.91,24.91,0,0,1,38.67,35.1l0,0Z" fill="#e040fb"/></svg>